<svg width="525" height="526" viewBox="0 0 525 526" fill="none" xmlns="http://www.w3.org/2000/svg">
<g filter="url(#filter0_b_1_475)">
<path fill-rule="evenodd" clip-rule="evenodd" d="M262.5 522.5C277.348 515.952 283.733 508.911 293.5 491.5C291.91 459.244 291.75 357.738 292.122 252.473C353.685 255.634 421.34 267.672 491 294C507.197 284.716 514.048 277.99 522 263C514.298 246.49 507.008 240.204 491 232C453.408 240.123 375.974 242.172 292.163 241.317C292.459 164.8 293.019 87.5203 293.5 34.5C284.708 17.4662 277.705 10.9976 262.5 3.5C256.492 18.5125 249.428 25.1664 231.5 34.5C249.379 71.3877 271.296 145.743 273.313 241.079C185.112 239.755 92.69 235.53 34 232C20.0584 240.078 12.4708 245.7 3 263C11.1667 267.954 18.5224 275.001 34 294C76.1003 274.09 164.059 249.226 273.454 251.776C273.827 322.882 262.998 404.964 231.5 491.5C250.577 500.253 255.812 507.788 262.5 522.5ZM286 41.5C286 51.4411 277.941 59.5 268 59.5C258.059 59.5 250 51.4411 250 41.5C250 31.5589 258.059 23.5 268 23.5C277.941 23.5 286 31.5589 286 41.5ZM484 280.5C493.941 280.5 502 272.441 502 262.5C502 252.559 493.941 244.5 484 244.5C474.059 244.5 466 252.559 466 262.5C466 272.441 474.059 280.5 484 280.5ZM286 478.5C286 488.441 277.941 496.5 268 496.5C258.059 496.5 250 488.441 250 478.5C250 468.559 258.059 460.5 268 460.5C277.941 460.5 286 468.559 286 478.5ZM41 276.5C50.9411 276.5 59 268.441 59 258.5C59 248.559 50.9411 240.5 41 240.5C31.0589 240.5 23 248.559 23 258.5C23 268.441 31.0589 276.5 41 276.5Z" fill="#0B150B" fill-opacity="0.12"/>
<path d="M294.372 491.989L294.513 491.738L294.499 491.451C292.916 459.336 292.751 358.431 293.118 253.526C354.309 256.765 421.488 268.797 490.646 294.935L491.088 295.102L491.497 294.868C499.629 290.206 505.477 286.153 510.298 281.348C515.124 276.538 518.88 271.016 522.883 263.469L523.117 263.029L522.906 262.577C519.024 254.255 515.214 248.441 510.312 243.669C505.419 238.904 499.49 235.227 491.456 231.11L491.138 230.947L490.789 231.023C453.475 239.085 376.623 241.156 293.167 240.327C293.464 164.137 294.021 87.2984 294.5 34.5091L294.502 34.2614L294.389 34.0414C289.969 25.4776 285.963 19.4992 281.107 14.7118C276.249 9.92224 270.591 6.37473 262.942 2.60311L261.973 2.12522L261.572 3.12843C258.602 10.5487 255.4 15.8354 250.766 20.4187C246.116 25.0187 239.975 28.9603 231.038 33.613L230.176 34.0617L230.6 34.9362C248.344 71.5452 270.14 145.351 272.291 240.063C184.421 238.722 92.5086 234.517 34.06 231.002L33.7593 230.984L33.4986 231.135C26.5165 235.181 21.0483 238.654 16.135 243.316C11.2147 247.986 6.89137 253.809 2.12284 262.52L1.6635 263.359L2.48137 263.855C10.4893 268.712 17.7531 275.64 33.2247 294.632L33.7194 295.239L34.4275 294.904C76.2539 275.124 163.661 250.377 272.459 252.754C272.727 323.53 261.87 405.139 230.56 491.158L230.245 492.024L231.083 492.409C240.557 496.756 246.509 500.762 250.917 505.45C255.329 510.142 258.255 515.579 261.59 522.914L261.999 523.814L262.903 523.415C270.408 520.105 275.833 516.644 280.619 511.774C285.387 506.922 289.477 500.714 294.372 491.989ZM285 41.5C285 50.8888 277.389 58.5 268 58.5C258.611 58.5 251 50.8888 251 41.5C251 32.1112 258.611 24.5 268 24.5C277.389 24.5 285 32.1112 285 41.5ZM501 262.5C501 271.889 493.389 279.5 484 279.5C474.611 279.5 467 271.889 467 262.5C467 253.111 474.611 245.5 484 245.5C493.389 245.5 501 253.111 501 262.5ZM285 478.5C285 487.889 277.389 495.5 268 495.5C258.611 495.5 251 487.889 251 478.5C251 469.111 258.611 461.5 268 461.5C277.389 461.5 285 469.111 285 478.5ZM58 258.5C58 267.889 50.3888 275.5 41 275.5C31.6112 275.5 24 267.889 24 258.5C24 249.111 31.6112 241.5 41 241.5C50.3888 241.5 58 249.111 58 258.5Z" stroke="#29FF2F" stroke-width="2"/>
</g>
<circle cx="268" cy="41.5" r="14" fill="#29FF2F"/>
<circle cx="484" cy="262.5" r="14" fill="#29FF2F"/>
<circle cx="268" cy="478.5" r="14" fill="#29FF2F"/>
<circle cx="41" cy="258.5" r="14" fill="#29FF2F"/>
<defs>
<filter id="filter0_b_1_475" x="-15.673" y="-15.2495" width="555.907" height="556.377" filterUnits="userSpaceOnUse" color-interpolation-filters="sRGB">
<feFlood flood-opacity="0" result="BackgroundImageFix"/>
<feGaussianBlur in="BackgroundImageFix" stdDeviation="8"/>
<feComposite in2="SourceAlpha" operator="in" result="effect1_backgroundBlur_1_475"/>
<feBlend mode="normal" in="SourceGraphic" in2="effect1_backgroundBlur_1_475" result="shape"/>
</filter>
</defs>
</svg>
