<svg width="140" height="32" viewBox="0 0 140 32" fill="none" xmlns="http://www.w3.org/2000/svg">
<g clip-path="url(#clip0_1_401)">
<path d="M14.8182 29.5915C22.9859 29.5915 29.6071 22.9702 29.6071 14.8026C29.6071 6.63489 22.9859 0.0136719 14.8182 0.0136719C6.65051 0.0136719 0.0292969 6.63489 0.0292969 14.8026C0.0292969 22.9702 6.65051 29.5915 14.8182 29.5915Z" fill="#1C8521"/>
<path d="M14.8182 26.3564C21.1992 26.3564 26.372 21.1836 26.372 14.8026C26.372 8.42159 21.1992 3.24878 14.8182 3.24878C8.43722 3.24878 3.2644 8.42159 3.2644 14.8026C3.2644 21.1836 8.43722 26.3564 14.8182 26.3564Z" fill="#29FF2F"/>
<path d="M41.9731 24.3373L41.465 24.8455L39.9672 23.3477V17.3833L41.465 15.8855L41.9731 16.3669V24.3373ZM41.9731 14.8692L41.465 15.3773L39.9672 13.8796V9.03851H41.9731V14.8692ZM45.8246 6.41737L46.3328 6.8988L44.835 8.3966H37.1321L35.6343 6.8988L36.1157 6.41737H45.8246ZM49.7448 22.893V24.8455H47.7656V22.893H49.7448ZM61.4918 6.39062L59.4859 8.3966H54.5111L52.5318 6.39062H61.4918ZM54.0029 8.87803V13.8796L52.5318 15.3773L52.0236 14.8692V6.8988L54.0029 8.87803ZM59.7533 14.6284L60.7429 15.6181L59.7533 16.6077H54.2436L53.254 15.6181L54.2436 14.6284H59.7533ZM54.0029 17.3566V22.3314L52.0236 24.3373V16.3669L52.5318 15.8588L54.0029 17.3566ZM61.4918 24.8455H52.5318L54.5111 22.8395H59.4859L61.4918 24.8455ZM64.9986 22.893V24.8455H63.0194V22.893H64.9986ZM77.2002 24.8455L75.221 22.8663V17.3833L76.7188 15.8855L77.2002 16.3937V24.8455ZM77.2002 6.92555V14.8959L76.7188 15.3773L75.221 13.9063V8.90477L77.2002 6.92555ZM76.7188 6.41737L74.7128 8.42334H69.738L67.7321 6.41737H76.7188ZM69.2299 8.90477V13.9063L67.7321 15.3773L67.2506 14.8959V6.92555L69.2299 8.90477ZM75.9699 15.6448L74.9803 16.6344H69.4706L68.481 15.6448L69.4706 14.6284H74.9803L75.9699 15.6448ZM69.2299 22.8663L67.2506 24.8455V16.3937L67.7321 15.8855L69.2299 17.3833V22.8663ZM81.1926 22.893V24.8455H79.2134V22.893H81.1926ZM94.8386 24.8455L92.8326 22.8395V17.3566L94.3304 15.8588L94.8386 16.3669V24.8455ZM94.8386 6.8988V14.8692L94.3304 15.3773L92.8326 13.8796V8.90477L94.8386 6.8988ZM90.051 14.8692L89.0346 15.8588L88.045 14.8692V9.092H90.051V14.8692ZM94.3304 6.39062L92.3512 8.3966H85.8786L83.8726 6.39062H94.3304ZM85.3704 8.90477V13.8796L83.8726 15.3773L83.3644 14.8692V6.8988L85.3704 8.90477ZM85.3704 22.8395L83.3644 24.8455V16.3669L83.8726 15.8588L85.3704 17.3566V22.8395ZM108.305 22.3581L106.299 24.3373V16.3669L106.807 15.8855L108.305 17.3833V22.3581ZM115.259 24.3373L114.778 24.8455H106.807L108.787 22.8663H113.788L115.259 24.3373ZM116.275 23.3477L115.767 23.8559L114.27 22.3581V17.3833L115.767 15.8855L116.275 16.3669V23.3477ZM116.275 14.8692L115.767 15.3773L114.27 13.8796V8.90477L115.767 7.40698L116.275 7.91516V14.8692ZM115.259 6.8988L113.788 8.3966H108.787L106.807 6.41737H114.778L115.259 6.8988ZM108.305 13.8796L106.807 15.3773L106.299 14.8692V6.8988L108.305 8.90477V13.8796ZM128.211 24.8455L126.232 22.8663V17.3833L127.73 15.8855L128.211 16.3937V24.8455ZM128.211 6.92555V14.8959L127.73 15.3773L126.232 13.9063V8.90477L128.211 6.92555ZM127.73 6.41737L125.724 8.42334H120.749L118.743 6.41737H127.73ZM120.241 8.90477V13.9063L118.743 15.3773L118.262 14.8959V6.92555L120.241 8.90477ZM126.981 15.6448L125.992 16.6344H120.481L119.493 15.6448L120.481 14.6284H125.992L126.981 15.6448ZM120.241 22.8663L118.262 24.8455V16.3937L118.743 15.8855L120.241 17.3833V22.8663ZM140.228 23.3477L139.719 23.8292L138.222 22.3581V17.3566L139.719 15.8588L140.228 16.3669V23.3477ZM140.228 14.8692L139.719 15.3773L138.222 13.8796V8.87803L139.719 7.40698L140.228 7.88842V14.8692ZM139.211 6.8988L137.74 8.3966H132.739L131.241 6.8988L131.749 6.39062H138.73L139.211 6.8988ZM132.257 13.8796L130.759 15.3773L130.251 14.8692V7.88842L130.759 7.40698L132.257 8.87803V13.8796ZM132.257 22.3581L130.759 23.8292L130.251 23.3477V16.3669L130.759 15.8588L132.257 17.3566V22.3581ZM139.211 24.3373L138.73 24.8455H131.749L131.241 24.3373L132.739 22.8395H137.74L139.211 24.3373Z" fill="white"/>
</g>
<defs>
<clipPath id="clip0_1_401">
<rect width="140" height="32" fill="white"/>
</clipPath>
</defs>
</svg>
